# xmcd
#
# Track frame offsets: 
#        150
#        15865
#        27451
#        39937
#        51843
#        69414
#        81243
#        97537
#        115180
#        132651
#        145597
#        157818
#        173727
#        186632
#        200524
#        212882
#        227495
#        244625
#        259357
#        279435
#
# Disc length: 3887 seconds
#
# Revision: 1
# Processed by: cddbd v1.5.2PL0 Copyright (c) Steve Scherf et al.
# Submitted via: ExactAudioCopyFreeDBPlugin 1.0
#
DISCID=0d0f2d14
DTITLE=Various Artist - Rockin At The Barn Vol 5
DYEAR=2006
DGENRE=Country
TTITLE0=Blue Sky Forever  - Last Man On Earth
TTITLE1=Lazy Ike - I'll Be Damned
TTITLE2=Rock 'N' Roll Torpedoes  - Get A Move On Baby
TTITLE3=Gary Cooper - Troubles
TTITLE4=High Cotton - Tattoo
TTITLE5=Lee Marvelous - Right Now Is The Time To Fall Apart
TTITLE6=Sadler Dale - Fingers In A Pie
TTITLE7=The Howard Way  - Chantal Lane
TTITLE8=The STU - Can't Do Nothin'
TTITLE9=Svensson and Dafgård  - Take Me As I Am
TTITLE10=Linus Johnson and Stillhouse  - Miners Blues
TTITLE11=Larsson  - Fly
TTITLE12=Jim Cahill - House For Sale
TTITLE13=Moonlight Wranglers  - 77
TTITLE14=Lee Marvelous - Jack And Joanne
TTITLE15=Broken Records - The Silver Plate
TTITLE16=The Turnpikes  - Wasted Away
TTITLE17=Gary Cooper - King
TTITLE18=Sadler Dale  - I'm A Lover Now
TTITLE19=High Cotton - Dollar Store
EXTD=
EXTT0=
EXTT1=
EXTT2=
EXTT3=
EXTT4=
EXTT5=
EXTT6=
EXTT7=
EXTT8=
EXTT9=
EXTT10=
EXTT11=
EXTT12=
EXTT13=
EXTT14=
EXTT15=
EXTT16=
EXTT17=
EXTT18=
EXTT19=
PLAYORDER=
